<svg xmlns="http://www.w3.org/2000/svg" xmlns:xlink="http://www.w3.org/1999/xlink" viewBox="0 0 64 64" id="spider">
  <defs>
    <linearGradient id="c" x1="38.707" x2="50.089" y1="25.499" y2="25.499" gradientUnits="userSpaceOnUse">
      <stop offset="0" stop-color="#666"></stop>
      <stop offset="1" stop-color="#262525"></stop>
    </linearGradient>
    <linearGradient id="a" x1="51.387" x2="61.821" y1="39.064" y2="33.205" gradientUnits="userSpaceOnUse">
      <stop offset="0" stop-color="#262525"></stop>
      <stop offset="1" stop-color="#666"></stop>
    </linearGradient>
    <linearGradient xlink:href="#a" id="d" x1="48.661" x2="60.693" y1="48.038" y2="41.068"></linearGradient>
    <linearGradient id="b" x1="13.734" x2="24.052" y1="25.499" y2="25.499" gradientUnits="userSpaceOnUse">
      <stop offset="0" stop-color="#262525"></stop>
      <stop offset="1" stop-color="#666"></stop>
    </linearGradient>
    <linearGradient xlink:href="#b" id="e" x1="12.288" x2="8.053" y1="38.4" y2="26.391"></linearGradient>
    <linearGradient id="f" x1="2.56" x2="14.083" y1="45.6" y2="48.313" gradientUnits="userSpaceOnUse">
      <stop offset="0" stop-color="#666"></stop>
      <stop offset="1" stop-color="#262525"></stop>
    </linearGradient>
    <linearGradient id="g" x1="5.065" x2="51.706" y1="3.292" y2="16.041" gradientUnits="userSpaceOnUse">
      <stop offset="0" stop-color="#eaeaea"></stop>
      <stop offset="1" stop-color="#c4bbbb"></stop>
    </linearGradient>
    <linearGradient id="h" x1="17.408" x2="40.683" y1="31.514" y2="40.264" gradientUnits="userSpaceOnUse">
      <stop offset="0" stop-color="#e21a1a"></stop>
      <stop offset="1" stop-color="#89040e"></stop>
    </linearGradient>
    <linearGradient xlink:href="#c" id="i" x1="21.335" x2="36.017" y1="42.901" y2="52.674"></linearGradient>
    <linearGradient id="j" x1="33.285" x2="39.662" y1="48.774" y2="51.653" gradientUnits="userSpaceOnUse">
      <stop offset="0" stop-color="#fc0"></stop>
      <stop offset="1" stop-color="#faa20a"></stop>
    </linearGradient>
    <linearGradient id="k" x1="24.619" x2="31.149" y1="51.301" y2="48.788" gradientUnits="userSpaceOnUse">
      <stop offset="0" stop-color="#faa20a"></stop>
      <stop offset="1" stop-color="#fc0"></stop>
    </linearGradient>
  </defs>
  <path fill="url(#c)" d="m39.33594,29.50391l7.17773-4.78564-1.39844-4.89404c-.21973-.77051-.12695-1.58057.2627-2.28125.38867-.7002,1.02734-1.20752,1.79688-1.42725.77051-.22217,1.58203-.12842,2.28223.26172.7002.38916,1.20703,1.02783,1.42773,1.79834l1.99902,6.99951c.36133,1.25977-.12988,2.59375-1.21973,3.3208l-8.99902,5.99951c-.49414.33008-1.06934.50439-1.66309.50439-1.00586,0-1.93945-.49951-2.49805-1.33594-.91699-1.37646-.54395-3.24268.83203-4.16016Z"></path>
  <path fill="#262525" d="m49.83832,25.88232l-2.69672-9.75348c.01154-.00342.02161-.00983.0332-.01312.77051-.22217,1.58203-.12842,2.28223.26172.7002.38916,1.20703,1.02783,1.42773,1.79834l1.99902,6.99951c.36133,1.25977-.12988,2.59375-1.21973,3.3208l-8.99902,5.99951c-.49414.33008-1.06934.50439-1.66309.50439-1.00586,0-1.93945-.49951-2.49805-1.33594-.06366-.09552-.10632-.198-.15765-.29779l11.49207-7.48395Z"></path>
  <path fill="url(#a)" d="m41.3584,36.57764c.37988-.70557,1.0127-1.2207,1.78027-1.45117l9.99805-2.99902c1.05762-.32031,2.2002-.03125,2.98437.75146l5,4.99951c.56641.56689.87891,1.32031.87891,2.12158s-.3125,1.55469-.87891,2.12109c-.56641.56689-1.32031.87891-2.12109.87891s-1.55469-.31201-2.12109-.87891l-3.7334-3.73291-8.2832,2.48486c-1.58691.47754-3.25879-.42529-3.73633-2.01123-.23047-.76758-.14746-1.57861.23242-2.28418Z"></path>
  <path fill="#262525" d="m54,35l7.12109,7.12109c-.56641.56689-1.32031.87891-2.12109.87891s-1.55469-.31201-2.12109-.87891l-3.7334-3.73291-8.2832,2.48486c-1.51373.45551-3.09247-.35291-3.65051-1.80408l12.78821-4.06897Z"></path>
  <path fill="url(#d)" d="m34.02637,43.60449c.10547-.79395.51465-1.49951,1.15332-1.9873.6377-.48779,1.42578-.69629,2.2168-.59082l15,2c.88867.11816,1.6709.62207,2.14746,1.38379l5,8c.4248.67969.55957,1.48389.37891,2.26416-.17969.78125-.65332,1.44482-1.33301,1.86914-.47754.29883-1.02637.45703-1.58789.45703-1.04199,0-1.99316-.52686-2.5459-1.41064l-4.25195-6.80273-13.60059-1.81348c-.79492-.10596-1.5-.51465-1.9873-1.15137-.48633-.63672-.69629-1.4248-.58984-2.21777Z"></path>
  <path fill="#262525" d="m34.09424,43.31427l17.90576,2.68573,6.38995,10.64996c-.42883.2254-.90216.35052-1.388.35052-1.04199,0-1.99316-.52686-2.5459-1.41064l-4.25195-6.80273-13.60059-1.81348c-.79492-.10596-1.5-.51465-1.9873-1.15137-.48633-.63672-.69629-1.4248-.58984-2.21777.01324-.09985.04517-.19342.06787-.29022Z"></path>
  <path fill="url(#b)" d="m24.66406,29.50391l-7.17773-4.78564,1.39844-4.89404c.21973-.77051.12695-1.58057-.2627-2.28125-.38867-.7002-1.02734-1.20752-1.79688-1.42725-.77051-.22217-1.58203-.12842-2.28223.26172-.7002.38916-1.20703,1.02783-1.42773,1.79834l-1.99902,6.99951c-.36133,1.25977.12988,2.59375,1.21973,3.3208l8.99902,5.99951c.49414.33008,1.06934.50439,1.66309.50439,1.00586,0,1.93944-.49951,2.49805-1.33594.91699-1.37646.54395-3.24268-.83203-4.16016Z"></path>
  <path fill="#262525" d="m14.16168,25.88232l2.69672-9.75348c-.01154-.00342-.02161-.00983-.0332-.01312-.77051-.22217-1.58203-.12842-2.28223.26172-.7002.38916-1.20703,1.02783-1.42773,1.79834l-1.99902,6.99951c-.36133,1.25977.12988,2.59375,1.21973,3.3208l8.99902,5.99951c.49414.33008,1.06934.50439,1.66309.50439,1.00586,0,1.93944-.49951,2.49805-1.33594.06366-.09552.10632-.198.15765-.29779l-11.49207-7.48395Z"></path>
  <path fill="url(#e)" d="m22.6416,36.57764c-.37988-.70557-1.0127-1.2207-1.78027-1.45117l-9.99805-2.99902c-1.05762-.32031-2.2002-.03125-2.98438.75146l-5,4.99951c-.56642.56689-.87891,1.32031-.87891,2.12158s.31249,1.55469.87891,2.12109c.56641.56689,1.32031.87891,2.12109.87891s1.55469-.31201,2.12109-.87891l3.7334-3.73291,8.2832,2.48486c1.58691.47754,3.25879-.42529,3.73633-2.01123.23047-.76758.14746-1.57861-.23242-2.28418Z"></path>
  <path fill="#262525" d="m10,35l-7.12109,7.12109c.56641.56689,1.32031.87891,2.12109.87891s1.55469-.31201,2.12109-.87891l3.7334-3.73291,8.2832,2.48486c1.51373.45551,3.09247-.35291,3.65051-1.80408l-12.78821-4.06897Z"></path>
  <path fill="url(#f)" d="m29.97363,43.60449c-.10547-.79395-.51465-1.49951-1.15332-1.9873-.6377-.48779-1.42578-.69629-2.2168-.59082l-15,2c-.88867.11816-1.6709.62207-2.14746,1.38379l-5,8c-.4248.67969-.55957,1.48389-.37891,2.26416.17969.78125.65332,1.44482,1.33301,1.86914.47754.29883,1.02637.45703,1.58789.45703,1.04199,0,1.99316-.52686,2.5459-1.41064l4.25195-6.80273,13.60059-1.81348c.79492-.10596,1.5-.51465,1.9873-1.15137.48633-.63672.69629-1.4248.58984-2.21777Z"></path>
  <path fill="#262525" d="m29.90576,43.31427l-17.90576,2.68573-6.38995,10.64996c.42883.2254.90216.35052,1.388.35052,1.04199,0,1.99316-.52686,2.5459-1.41064l4.25195-6.80273,13.60059-1.81348c.79492-.10596,1.5-.51465,1.9873-1.15137.48633-.63672.69629-1.4248.58984-2.21777-.01324-.09985-.04517-.19342-.06787-.29022Z"></path>
  <path fill="url(#g)" d="m2.72266,3.96094c.25195.07324,6.14941,1.86572,5.28711,7.89746-.04395.30859.05859.61963.27637.8418.21777.22168.52148.33252.83691.29199.07812-.00977,7.65039-.89404,12.25195,2.78857.28809.23047.67773.2832,1.01855.13867,1.698-.72479,6.396-2.1347,8.60645-.45343v11.534h2v-11.534c2.21198-1.68274,6.90839-.27136,8.60645.45343.34082.14502.73145.0918,1.01855-.13867,4.60254-3.68262,12.1748-2.79834,12.25195-2.78857.31543.04199.61914-.07031.83691-.29199.21777-.22217.32031-.5332.27637-.8418-.8623-6.03174,5.03516-7.82422,5.28711-7.89746.47754-.13818.78223-.60645.71289-1.09961-.06934-.49414-.49121-.86133-.99023-.86133H3c-.49805,0-.91797.36621-.98828.85889s.2334.9624.71094,1.10205Zm39.44971,9.68353l-2.14337-2.57208c.15216-.45129.42377-.79248.86066-1.04993,1.57373-.9292,4.56995-.48364,5.85492-.17914l3.08087,1.20557c-2.4126.27515-5.2511.97607-7.65308,2.59558Zm14.92432-9.64447c-1.68555,1.40369-3.11584,3.54095-3.17511,6.50433l-5.87488-2.29889c-.06329-.29919-.02209-.5755.12714-.86462.77753-1.50287,4.09888-2.77014,6.39423-3.34082h2.52863Zm-8.07904,0c-1.12354.64465-2.11292,1.44263-2.6192,2.42041-.17023.32843-.26868.66882-.32458,1.01306l-8.77441-3.43347h11.7182Zm-7.69403,3.72211c-.51263.13068-1.00464.315-1.44763.57623-.50818.29956-.89551.6922-1.21179,1.13635l-3.40448-4.08545,6.0639,2.37286Zm-8.32361-1.95972l2.85284,3.4234c-.94519-.11017-1.94531-.10101-2.85284.15613v-3.57953Zm0,5.75452c1.19122-.75531,3.55951-.26404,4.93988.17328l1.13208,1.35852c-1.86761-.41022-4.18597-.61438-6.07196.14606v-1.67786Zm-11.17908,2.13562c-2.40826-1.62213-5.24347-2.32489-7.65924-2.59863l3.09418-1.21075c1.28137-.30554,4.27332-.75269,5.85254.17834.43781.25745.71033.59912.86261,1.0509l-2.15009,2.58014Zm9.17908-.45758c-1.8855-.75989-4.20441-.55573-6.07239-.14569l1.13403-1.36084c1.37836-.43903,3.74432-.93097,4.93835-.17175v1.67828Zm0-3.85358c-.90723-.25732-1.90723-.26642-2.85248-.15601l2.85248-3.42297v3.57898Zm-5.66418.09332c-.31628-.44415-.70361-.83679-1.21179-1.13635-.44299-.26123-.935-.44562-1.44763-.57629l6.0639-2.3728-3.40448,4.08545Zm1.36469-5.43469l-8.77441,3.43347c-.05591-.34424-.1543-.68463-.32452-1.01306-.50555-.97638-1.48993-1.77625-2.61145-2.42041h11.71039Zm-17.26855,0c2.29535.57068,5.6167,1.83795,6.39423,3.34082.14923.28912.19043.56543.12714.86462l-5.87488,2.29889c-.05927-2.96338-1.48956-5.10065-3.17511-6.50433h2.52863Z"></path>
  <ellipse cx="32" cy="37" fill="url(#h)" rx="16" ry="15"></ellipse>
  <path fill="#89040e" d="m37.9386,23.08325c3.10712,2.73798,5.0614,6.6131,5.0614,10.91675,0,8.271-7.17773,15-16,15-2.09924,0-4.10016-.39117-5.93866-1.08331,2.86432,2.52405,6.70685,4.08331,10.93866,4.08331,8.82227,0,16-6.729,16-15,0-6.30292-4.17352-11.7002-10.0614-13.91675Z"></path>
  <circle cx="32" cy="50" r="12" fill="url(#i)"></circle>
  <path fill="#262525" d="m36.32959,38.82092c2.24658,2.01538,3.67041,4.93054,3.67041,8.17908,0,6.06531-4.93427,11-11,11-3.24866,0-6.16376-1.42383-8.17908-3.67041,1.74164,4.48071,6.08978,7.67041,11.17908,7.67041,6.61719,0,12-5.3833,12-12,0-5.08899-3.18951-9.43738-7.67041-11.17908Z"></path>
  <path fill="url(#j)" d="m38.89453,46.55273c-.15918-.31885-.47656-.52881-.83204-.55078-.37011-.02393-.69628.14648-.89452.44336l-4,6c-.18066.27051-.21777.61182-.10059.91553.11719.30322.375.53027.69043.60938.92383.23096,1.75098.34619,2.47852.34619,1.36719,0,2.38379-.40674,3.03516-1.21875,1.7334-2.16113-.15625-6.10254-.37695-6.54492Z"></path>
  <path fill="url(#k)" d="m26.83203,46.44531c-.19824-.29639-.52637-.46631-.89454-.44336-.35546.02197-.67284.23193-.83202.55078-.2207.44238-2.11035,4.38379-.37695,6.54492.65137.81201,1.66797,1.21875,3.03516,1.21875.72754,0,1.55469-.11523,2.47852-.34619.31543-.0791.57324-.30615.69043-.60938.11719-.30371.08008-.64502-.10059-.91553l-4-6Z"></path>
  <path fill="#faa20a" d="M24.5285 47.95929c-.49835 1.45874-.9585 3.69403.20001 5.13837.65137.81201 1.66797 1.21875 3.03516 1.21875.67316 0 1.44086-.10968 2.28229-.30737-2.65155-.38281-5.63373-1.76404-5.51746-6.04974zM39.47163 47.95929c.49835 1.45874.9585 3.69403-.20001 5.13837-.65137.81201-1.66797 1.21875-3.03516 1.21875-.67316 0-1.44086-.10968-2.28229-.30737 2.65155-.38281 5.63373-1.76404 5.51746-6.04974z"></path>
  <path fill="#fff" d="M21.44629 31c-.21484 0-.43164-.06885-.61426-.21143-.43555-.33984-.5127-.96826-.17285-1.40381 1.74023-2.23047 4.24512-3.92139 7.05469-4.76172.52344-.15967 1.08594.14209 1.24414.67139s-.14258 1.08643-.67188 1.24463c-2.41406.72217-4.56348 2.16992-6.05078 4.07617-.19727.25244-.49121.38477-.78906.38477zM19.18164 36c-.05957 0-.11914-.00537-.17969-.01611-.54395-.09863-.9043-.61963-.80469-1.1626.06641-.36914.15039-.73291.25098-1.09082.14844-.53223.70801-.84082 1.23242-.69336.53223.14844.8418.70068.69336 1.23242-.08301.29834-.15332.60156-.20996.90918-.08691.48291-.50781.82129-.98242.82129z"></path>
</svg>
