<svg xmlns="http://www.w3.org/2000/svg" viewBox="0 0 64 64"><path fill="#344549" d="M48.34 8.824H5.843a5.84 5.84 0 0 0-5.838 5.84v42.498A5.84 5.84 0 0 0 5.843 63H48.34a5.84 5.84 0 0 0 5.838-5.839V14.664a5.84 5.84 0 0 0-5.838-5.84m2.72 45.46a5.166 5.166 0 0 1-5.165 5.168H8.293a5.166 5.166 0 0 1-5.168-5.168V16.683a5.167 5.167 0 0 1 5.168-5.167h37.602a5.17 5.17 0 0 1 5.165 5.167z"/><path fill="#ffa600" d="M56.06 3.645c-7.701 6.668-14.766 13.742-20.733 22.02c-2.632 3.652-4.701 7.709-6.613 11.767c-.899 1.91-1.436 3.897-1.941 5.884c-3.673-3.414-7.248-6.925-11.28-9.96c-2.875-2.163-12.525 4.62-9.155 7.158c6.04 4.544 11.07 10.201 16.94 14.947c2.458 1.983 7.905-2.321 9.181-4.13c4.201-5.95 4.775-13.229 7.838-19.722c4.676-9.929 12.967-18.08 21.15-25.17c6.11-5.288-1.272-6.357-5.385-2.798"/></svg>